<svg xmlns="http://www.w3.org/2000/svg" viewBox="0 0 32 32"><defs><style>.a,.b{fill:none;stroke-linecap:round;stroke-linejoin:round;stroke-width:2px;}.a{stroke:#000;}.b{stroke:#186ff2;}</style></defs><title>Icons</title><path d="M6.7,22.14h3a4.18,4.18,0,0,1,1.84.39,2.89,2.89,0,0,1,1.24,1.1,3.12,3.12,0,0,1,.44,1.66A3.15,3.15,0,0,1,12.76,27a3,3,0,0,1-1.24,1.1,4.32,4.32,0,0,1-1.84.38h-3ZM9.61,27a1.81,1.81,0,0,0,1.3-.46,1.89,1.89,0,0,0,0-2.54,1.86,1.86,0,0,0-1.3-.46H8.49V27Z"/><path d="M17.89,28.44l-1.31-2-1.28,2h-2l2.3-3.18-2.2-3.12h2L16.63,24l1.24-1.82H19.8l-2.2,3,2.34,3.26Z"/><path d="M22.14,23.52v1.39h2.78v1.37H22.14v2.16H20.36v-6.3H25.3v1.38Z"/><rect class="a" x="1" y="19.59" width="30" height="11.41"/><line class="b" x1="9.61" y1="9.8" x2="22.39" y2="9.8"/><path class="b" d="M12.2,14.8V13.6A3.8,3.8,0,0,1,16,9.8h0a3.8,3.8,0,0,1,3.8,3.8v1.2"/><polygon class="a" points="28 6.39 22.61 1 4 1 4 19.59 28 19.59 28 6.39"/><polygon class="a" points="22.61 1 28 6.39 22.61 6.39 22.61 1"/></svg>