<svg xmlns="http://www.w3.org/2000/svg" viewBox="0 0 32 32"><defs><style>.a,.b{fill:none;stroke-linecap:round;stroke-linejoin:round;stroke-width:2px;}.a{stroke:#000;}.b{stroke:#186ff2;}</style></defs><title>Icons</title><rect class="a" x="1" y="19.59" width="30" height="11.41"/><path d="M8.83,28.38a3.74,3.74,0,0,1-1.17-.5l.59-1.32a3.53,3.53,0,0,0,1,.45,3.55,3.55,0,0,0,1.1.17q1,0,1-.51a.43.43,0,0,0-.29-.4,5.56,5.56,0,0,0-.94-.28,9.81,9.81,0,0,1-1.19-.32,2,2,0,0,1-.82-.57,1.48,1.48,0,0,1-.34-1,1.82,1.82,0,0,1,.31-1A2.11,2.11,0,0,1,9,22.29,3.81,3.81,0,0,1,10.56,22a5,5,0,0,1,1.22.14,3.67,3.67,0,0,1,1.07.41l-.55,1.32a3.63,3.63,0,0,0-1.75-.49,1.5,1.5,0,0,0-.77.16.47.47,0,0,0-.25.41.42.42,0,0,0,.29.38,5.48,5.48,0,0,0,.93.26,7.8,7.8,0,0,1,1.19.33,1.91,1.91,0,0,1,.82.56,1.48,1.48,0,0,1,.35,1,1.79,1.79,0,0,1-.32,1,2.08,2.08,0,0,1-.94.73,3.7,3.7,0,0,1-1.53.28A5.69,5.69,0,0,1,8.83,28.38Z"/><path d="M15.18,23.56H13.24V22.14h5.64v1.42H17v4.88H15.18Z"/><path d="M19.55,22.14h1.78V27h3v1.41H19.55Z"/><line class="b" x1="14" y1="15.2" x2="14" y2="5"/><polyline class="b" points="10 9 14 5 18 9"/><polygon class="a" points="28 6.39 22.61 1 4 1 4 19.59 28 19.59 28 6.39"/><polygon class="a" points="22.61 1 28 6.39 22.61 6.39 22.61 1"/></svg>