<svg xmlns="http://www.w3.org/2000/svg" viewBox="0 0 32 32"><defs><style>.a{fill:none;stroke:#000;stroke-linecap:round;stroke-linejoin:round;stroke-width:2px;}</style></defs><title>Icons</title><polygon class="a" points="24.84 6 31 12.15 24.84 12.15 24.84 6"/><polygon class="a" points="5.37 7.73 5.37 6 1 6 1 28 11 28 11 7.73 5.37 7.73"/><path class="a" d="M16.07,1h-8A2.24,2.24,0,0,1,5.83,3.24H5.37V7.73H11V6h7.78V3.24h-.46A2.24,2.24,0,0,1,16.07,1Z"/><polygon class="a" points="24.84 6 21 6 19.78 6 11 6 11 7.73 11 30 11 31 31 31 31 12.15 24.84 6"/></svg>