<svg xmlns="http://www.w3.org/2000/svg" viewBox="0 0 32 32"><defs><style>.a{fill:none;stroke:#000;stroke-linecap:round;stroke-linejoin:round;stroke-width:2px;}</style></defs><title>Icons</title><path class="a" d="M30.74,5.94,26.06,1.26A.88.88,0,0,0,25.43,1H1.88A.87.87,0,0,0,1,1.88V30.12a.87.87,0,0,0,.88.88H30.12a.87.87,0,0,0,.88-.88V6.57A.88.88,0,0,0,30.74,5.94Z"/><path class="a" d="M24.79,15.18H7.21a.88.88,0,0,0-.88.88V31H25.67V16.06A.88.88,0,0,0,24.79,15.18Z"/><path class="a" d="M22.15,1H6.33V9.5a.89.89,0,0,0,.88.88H21.27a.88.88,0,0,0,.88-.88Z"/><line class="a" x1="10.73" y1="20.65" x2="21.27" y2="20.65"/><line class="a" x1="10.73" y1="25.53" x2="21.27" y2="25.53"/></svg>